<svg width="343" height="48" viewBox="0 0 343 48" fill="none" xmlns="http://www.w3.org/2000/svg">
<rect width="343" height="48" rx="4" fill="#1DA1F2"/>
<path d="M89.5 17.1306C88.6537 17.4919 87.7442 17.7366 86.7902 17.8459C87.7644 17.2837 88.5123 16.3934 88.8648 15.3321C87.9529 15.8531 86.9433 16.2314 85.8682 16.4347C85.0075 15.5517 83.7809 15 82.4239 15C79.8176 15 77.7051 17.0342 77.7051 19.5439C77.7051 19.9004 77.7472 20.2471 77.8271 20.5793C73.9059 20.3897 70.4288 18.5807 68.101 15.832C67.6946 16.5028 67.4624 17.2837 67.4624 18.1165C67.4624 19.693 68.2953 21.084 69.5615 21.899C68.7883 21.8755 68.0606 21.6713 67.4237 21.3303C67.4237 21.3489 67.4237 21.3683 67.4237 21.3878C67.4237 23.5897 69.0499 25.4262 71.2087 25.8434C70.8124 25.9471 70.396 26.003 69.9653 26.003C69.6616 26.003 69.3654 25.9747 69.0777 25.9212C69.6784 27.7261 71.4207 29.0401 73.4861 29.0766C71.8708 30.295 69.8366 31.0217 67.6256 31.0217C67.2445 31.0217 66.8693 30.9998 66.5 30.9585C68.5881 32.2474 71.0682 33 73.7334 33C82.413 33 87.1587 26.0759 87.1587 20.0713C87.1587 19.8745 87.1545 19.6784 87.1452 19.4832C88.0673 18.8424 88.8674 18.042 89.5 17.1306Z" fill="white"/>
<path d="M112.461 30V20.7422H115.844V18.7266H106.719V20.7422H110.102V30H112.461ZM129.125 21.3828H126.867L125.586 27.5625H125.445L123.93 21.3828H121.758L120.25 27.5625H120.109L118.828 21.3828H116.523L118.82 30H121.211L122.734 24.0547H122.875L124.414 30H126.836L129.125 21.3828ZM130.766 30H133.039V21.3828H130.766V30ZM131.906 20.0938C132.617 20.0938 133.195 19.5156 133.195 18.7891C133.195 18.0625 132.617 17.4922 131.906 17.4922C131.203 17.4922 130.617 18.0625 130.617 18.7891C130.617 19.5156 131.203 20.0938 131.906 20.0938ZM135.992 19.3359V21.4688H134.648V23.2578H135.992V27.6719C135.992 29.3516 136.82 30.0312 138.914 30.0312C139.352 30.0312 139.773 29.9844 140.055 29.9297V28.1953C139.836 28.2188 139.68 28.2266 139.383 28.2266C138.609 28.2266 138.266 27.8828 138.266 27.1328V23.2578H140.055V21.4688H138.266V19.3359H135.992ZM142.68 19.3359V21.4688H141.336V23.2578H142.68V27.6719C142.68 29.3516 143.508 30.0312 145.602 30.0312C146.039 30.0312 146.461 29.9844 146.742 29.9297V28.1953C146.523 28.2188 146.367 28.2266 146.07 28.2266C145.297 28.2266 144.953 27.8828 144.953 27.1328V23.2578H146.742V21.4688H144.953V19.3359H142.68ZM152.305 22.9375C153.367 22.9375 154.055 23.6484 154.102 24.7891H150.43C150.508 23.6719 151.25 22.9375 152.305 22.9375ZM154.148 27.5469C153.906 28.1172 153.289 28.4375 152.391 28.4375C151.203 28.4375 150.453 27.6406 150.422 26.3594V26.2422H156.336V25.5469C156.336 22.8125 154.836 21.1953 152.297 21.1953C149.734 21.1953 148.156 22.9297 148.156 25.7344C148.156 28.5312 149.703 30.1875 152.328 30.1875C154.438 30.1875 155.93 29.1641 156.266 27.5469H154.148ZM158.203 30H160.477V25.2266C160.477 24.0156 161.328 23.2812 162.57 23.2812C162.938 23.2812 163.469 23.3516 163.648 23.4219V21.3516C163.453 21.2812 163.07 21.2422 162.758 21.2422C161.664 21.2422 160.773 21.8984 160.547 22.7578H160.406V21.3828H158.203V30ZM165.135 19.024L165.343 21.216C167.199 20.816 170.463 20.464 171.967 20.304C170.879 21.12 169.583 22.944 169.583 25.248C169.583 28.72 172.751 30.512 176.111 30.736L176.863 28.544C174.143 28.4 171.679 27.456 171.679 24.816C171.679 22.912 173.135 20.848 175.071 20.336C175.919 20.128 177.295 20.128 178.159 20.112L178.143 18.064C177.007 18.112 175.263 18.208 173.615 18.352C170.687 18.592 168.047 18.832 166.703 18.944C166.399 18.976 165.775 19.008 165.135 19.024ZM175.871 21.68L174.687 22.176C175.199 22.896 175.535 23.52 175.935 24.4L177.151 23.856C176.847 23.232 176.271 22.256 175.871 21.68ZM177.663 20.944L176.495 21.488C177.007 22.192 177.375 22.784 177.807 23.648L179.007 23.072C178.671 22.448 178.063 21.504 177.663 20.944ZM192.879 28.656H183.215V20.24H181.359V31.392H183.215V30.448H192.879V31.376H194.719V20.24H192.879V28.656ZM190.191 23.36H188.799V22.016H190.191V23.36ZM190.191 26.16H188.799V24.8H190.191V26.16ZM185.775 24.8H187.167V26.16H185.775V24.8ZM185.775 22.016H187.167V23.36H185.775V22.016ZM180.879 17.408V19.184H187.023V20.464H184.223V27.712H191.839V20.464H188.927V19.184H195.199V17.408H180.879ZM199.423 16.464C198.719 18.816 197.535 21.152 196.255 22.64C196.559 23.136 197.023 24.24 197.167 24.688C197.503 24.304 197.839 23.856 198.159 23.376V31.376H199.967V20.096C200.431 19.072 200.847 18.016 201.183 16.992L199.423 16.464ZM203.087 20.944H205.151V22.16H203.087V20.944ZM206.287 18.8C206.095 19.104 205.871 19.408 205.663 19.648H203.183C203.423 19.376 203.647 19.088 203.871 18.8H206.287ZM209.135 22.16H206.847V20.944H209.135V22.16ZM205.375 29.52C205.167 29.776 204.911 29.84 204.591 29.84C204.303 29.84 203.935 29.824 203.519 29.776C204.303 29.344 205.071 28.832 205.759 28.336C205.743 28.88 205.599 29.312 205.375 29.52ZM210.223 23.76C209.823 24.192 209.231 24.736 208.671 25.2C208.463 24.64 208.303 24.048 208.159 23.44H210.959V19.648H207.679C208.063 19.152 208.431 18.608 208.735 18.112L207.615 17.312L207.279 17.424H204.815C204.943 17.216 205.071 16.992 205.183 16.784L203.391 16.464C202.799 17.648 201.711 19.056 200.207 20.112C200.559 20.288 201.039 20.64 201.375 20.96V23.44H203.807C202.799 24 201.631 24.448 200.511 24.768C200.831 25.056 201.327 25.696 201.567 26C202.367 25.712 203.231 25.328 204.047 24.864C204.191 24.992 204.319 25.12 204.431 25.248C203.375 25.968 201.839 26.672 200.623 27.024C200.927 27.328 201.295 27.856 201.487 28.208C202.655 27.744 204.047 26.992 205.167 26.224C205.263 26.416 205.359 26.592 205.439 26.784C204.143 27.872 202.063 28.976 200.351 29.488C200.719 29.84 201.135 30.432 201.359 30.832C202.015 30.56 202.719 30.224 203.423 29.824C203.679 30.304 203.791 30.928 203.823 31.36C204.223 31.392 204.623 31.408 204.943 31.408C205.647 31.376 206.143 31.232 206.639 30.752C207.855 29.696 207.903 26.288 205.327 24.096C205.647 23.888 205.951 23.664 206.223 23.44H206.543C207.215 26.672 208.367 29.312 210.495 30.752C210.751 30.288 211.295 29.6 211.711 29.264C210.687 28.672 209.903 27.728 209.295 26.592C209.983 26.144 210.815 25.504 211.503 24.896L210.223 23.76ZM219.807 17.168L217.695 16.992C217.663 17.568 217.551 18.192 217.375 18.832C217.119 18.832 216.847 18.832 216.607 18.832C215.791 18.832 214.607 18.768 213.791 18.64V20.512C214.671 20.576 215.839 20.608 216.495 20.608C216.559 20.608 216.623 20.608 216.703 20.608C215.983 22.048 214.847 23.472 213.167 25.024L214.879 26.304C215.423 25.6 215.887 25.024 216.367 24.544C216.975 23.952 217.967 23.44 218.863 23.44C219.311 23.44 219.743 23.584 219.983 23.984C218.159 24.928 216.239 26.208 216.239 28.256C216.239 30.32 218.095 30.928 220.607 30.928C222.111 30.928 224.079 30.8 225.135 30.656L225.199 28.592C223.791 28.864 222.015 29.04 220.655 29.04C219.087 29.04 218.335 28.8 218.335 27.92C218.335 27.12 218.975 26.496 220.175 25.808C220.159 26.512 220.143 27.28 220.095 27.76H222.015C221.999 27.024 221.967 25.84 221.951 24.944C222.927 24.496 223.839 24.144 224.559 23.856C225.103 23.648 225.951 23.328 226.463 23.184L225.663 21.328C225.071 21.632 224.511 21.888 223.887 22.16C223.231 22.448 222.559 22.72 221.727 23.104C221.375 22.288 220.575 21.872 219.599 21.872C219.071 21.872 218.207 22 217.791 22.192C218.111 21.728 218.431 21.152 218.703 20.56C220.431 20.512 222.399 20.384 223.919 20.16L223.935 18.304C222.527 18.544 220.927 18.688 219.407 18.768C219.615 18.096 219.727 17.568 219.807 17.168ZM232.975 17.328L231.807 19.088C232.863 19.68 234.527 20.768 235.423 21.392L236.623 19.616C235.791 19.04 234.031 17.904 232.975 17.328ZM229.999 28.688L231.199 30.8C232.623 30.544 234.911 29.744 236.543 28.816C239.167 27.312 241.423 25.28 242.911 23.072L241.679 20.896C240.399 23.184 238.175 25.376 235.455 26.896C233.711 27.856 231.791 28.384 229.999 28.688ZM230.511 20.976L229.343 22.752C230.415 23.312 232.079 24.4 232.991 25.024L234.159 23.232C233.343 22.656 231.583 21.552 230.511 20.976ZM247.183 21.328V23.344C247.535 23.312 248.111 23.28 248.447 23.28H250.943V28.432H247.679C247.279 28.432 246.783 28.384 246.367 28.336V30.432C246.799 30.368 247.295 30.352 247.679 30.352H256.527C256.799 30.352 257.391 30.368 257.743 30.432V28.336C257.407 28.368 256.959 28.432 256.527 28.432H253.039V23.28H255.775C256.143 23.28 256.623 23.312 257.023 23.344V21.328C256.639 21.376 256.159 21.408 255.775 21.408H248.447C248.095 21.408 247.535 21.392 247.183 21.328ZM275.311 19.168L274.047 17.984C273.743 18.08 272.863 18.128 272.415 18.128H263.791C263.119 18.128 262.447 18.064 261.839 17.968V20.192C262.591 20.128 263.119 20.08 263.791 20.08H272.127C271.711 20.864 270.463 22.272 269.183 23.056L270.847 24.384C272.415 23.264 273.935 21.248 274.687 20C274.831 19.76 275.135 19.376 275.311 19.168ZM268.783 21.328H266.463C266.543 21.84 266.575 22.272 266.575 22.768C266.575 25.392 266.191 27.088 264.159 28.496C263.567 28.928 262.991 29.2 262.479 29.376L264.351 30.896C268.703 28.56 268.783 25.296 268.783 21.328Z" fill="white"/>
</svg>
